<svg xmlns="http://www.w3.org/2000/svg" width="200" height="64" viewBox="0 0 200 64">
  <defs>
    <filter id="neon" x="-10%" y="-50%" width="120%" height="200%">
      <feGaussianBlur stdDeviation="2.5" result="blur"/>
      <feMerge>
        <feMergeNode in="blur"/>
        <feMergeNode in="SourceGraphic"/>
      </feMerge>
    </filter>
  </defs>
  
  <g filter="url(#neon)" fill="none" stroke="#5aaeff" stroke-width="5" stroke-linecap="round" stroke-linejoin="round">
    <!-- D bar -->
    <line x1="10" y1="8" x2="10" y2="56"/>
    <!-- D curve -->
    <path d="M10,8 C33,8 55,18 55,32 C55,46 33,56 10,56"/>
    <!-- o ring inside D -->
    <path d="M29,23 C33,22.5 39,26 39,32 C39,38.5 34.5,42 29,41.5 C23.5,42 20,38 20,32 C20,26 24.5,23 29,23"/>
    <!-- o dot -->
    <path fill="#5aaeff" stroke="none" d="M29,29.5 C30.6,29.2 32,30.2 32,32 C32.2,33.8 30.8,35 29,34.8 C27.2,35 25.8,33.6 26,32 C25.8,30.2 27.4,29.5 29,29.5"/>
    <!-- t -->
    <line x1="82" y1="4" x2="82" y2="56"/>
    <line x1="70" y1="26" x2="94" y2="26"/>
    <!-- e -->
    <path d="M138,20 A16,16 0 1 0 138,44"/>
    <line x1="110" y1="32" x2="128" y2="32"/>
    <!-- r -->
    <line x1="160" y1="18" x2="160" y2="56"/>
    <path d="M160,27 C162,17 173,13 187,15"/>
  </g>
</svg>
